<?xml version="1.0" standalone="no"?>
<!DOCTYPE svg PUBLIC "-//W3C//DTD SVG 20010904//EN"
 "http://www.w3.org/TR/2001/REC-SVG-20010904/DTD/svg10.dtd">
<svg version="1.0" xmlns="http://www.w3.org/2000/svg"
 width="612.000000pt" height="612.000000pt" viewBox="0 0 612.000000 612.000000"
 preserveAspectRatio="xMidYMid meet">
<metadata>
Created by potrace 1.14, written by Peter Selinger 2001-2017
</metadata>
<g transform="translate(0.000000,612.000000) scale(0.100000,-0.100000)"
fill="#000000" stroke="none">
<path d="M2927 5034 c-31 -10 -65 -31 -97 -62 -47 -46 -60 -74 -84 -184 -8
-35 -39 -56 -113 -75 -32 -8 -89 -29 -128 -47 -38 -18 -91 -38 -118 -45 -26
-8 -51 -19 -54 -25 -4 -6 -13 -102 -20 -215 l-12 -203 24 -71 c14 -39 25 -92
25 -119 0 -27 11 -77 25 -115 20 -52 24 -77 19 -110 -7 -47 10 -214 29 -277 6
-21 24 -58 39 -80 15 -23 34 -69 43 -101 14 -57 50 -136 112 -250 26 -46 28
-58 27 -162 -1 -86 -5 -118 -18 -137 -18 -29 -21 -82 -6 -122 7 -19 7 -36 -2
-60 -15 -41 -23 -43 -36 -6 -10 26 -10 26 -11 -13 -1 -45 -21 -88 -21 -47 0
29 -21 25 -35 -6 -10 -22 -33 -37 -43 -27 -3 2 0 10 5 17 5 7 13 21 16 31 5
13 -2 11 -28 -10 -19 -16 -35 -31 -35 -36 0 -4 -11 -12 -24 -17 -20 -7 -23
-14 -20 -42 3 -18 -1 -54 -7 -79 -10 -40 -10 -53 5 -90 18 -45 98 -129 123
-129 8 0 26 13 41 29 15 16 39 31 55 33 24 3 31 -4 70 -71 23 -41 47 -76 53
-78 6 -2 31 14 55 36 24 22 47 41 51 41 3 0 10 -11 15 -25 12 -36 97 -75 136
-63 34 12 35 28 3 28 -14 0 -28 5 -32 11 -3 6 -31 22 -60 35 -30 13 -54 29
-54 34 0 13 58 4 111 -17 30 -12 40 -12 72 2 31 13 37 20 37 44 0 34 32 47 74
31 33 -12 35 6 5 45 -16 19 -28 26 -46 22 -13 -2 -26 0 -29 5 -3 5 -17 13 -31
19 -15 5 -21 14 -17 21 5 8 0 9 -17 4 -13 -4 -36 -10 -52 -13 -15 -3 -30 -9
-33 -14 -13 -22 -22 -5 -19 39 3 66 13 84 39 76 37 -12 66 -36 66 -55 0 -23
-3 -23 48 1 22 11 45 20 51 20 5 0 16 8 23 18 7 9 56 39 110 65 94 48 97 48
122 32 19 -13 26 -26 26 -51 0 -37 14 -51 34 -35 7 6 15 9 18 6 3 -3 13 4 23
15 14 16 15 23 6 34 -7 8 -21 31 -31 51 -14 28 -15 33 -3 23 8 -7 25 -17 37
-23 12 -6 22 -22 24 -38 2 -15 9 -27 18 -27 20 0 17 23 -6 53 -11 14 -20 34
-20 45 0 11 -7 25 -15 32 -8 7 -15 17 -15 23 0 5 10 2 21 -9 l21 -19 -7 34
c-6 29 -5 33 9 28 14 -5 15 -3 6 13 -14 26 -12 35 5 20 12 -10 14 -5 11 32 -1
24 -10 57 -19 75 -25 48 -23 196 3 260 26 62 53 117 61 123 3 3 14 21 24 40
13 24 14 31 4 23 -12 -10 -13 -2 -11 51 3 47 0 67 -12 79 -9 8 -16 22 -16 29
0 8 -5 19 -12 26 -15 15 -78 16 -78 1 0 -6 -9 -8 -21 -4 -15 5 -29 0 -47 -18
-15 -13 -39 -32 -54 -42 -16 -9 -28 -26 -28 -36 0 -24 -22 -33 -56 -25 -24 6
-26 10 -19 39 4 18 10 57 14 87 5 30 10 61 12 69 2 8 -12 25 -31 38 -19 13
-47 34 -63 48 -15 14 -39 25 -54 25 -15 0 -41 5 -59 12 -27 10 -36 9 -51 -3
-27 -22 -93 -50 -104 -44 -5 4 -3 18 6 35 24 47 16 58 -15 20 -30 -35 -40 -70
-19 -70 11 0 10 -37 -7 -152 -7 -48 -19 -62 -30 -33 -4 8 -12 15 -20 15 -18 0
-28 42 -21 84 3 19 1 38 -4 43 -14 14 -14 135 0 161 10 20 64 42 102 42 10 0
30 15 46 33 16 17 43 39 58 47 16 9 41 33 55 54 43 63 56 64 84 9 13 -26 45
-79 71 -117 40 -60 45 -73 35 -91 -9 -17 -6 -31 17 -75 28 -55 28 -55 31 -23
2 18 -2 41 -7 52 -6 11 -11 24 -11 29 0 15 183 3 196 -14 6 -8 32 -17 58 -20
25 -4 46 -10 46 -15 0 -4 14 -1 30 7 33 17 38 42 19 90 -9 24 -7 30 12 45 22
17 22 17 9 118 -8 61 -10 105 -4 110 5 4 24 4 43 -1 l33 -9 -6 -157 c-4 -86
-14 -195 -22 -242 -18 -107 -45 -209 -56 -216 -4 -3 -8 -9 -8 -14 0 -17 92 52
111 83 36 60 92 234 85 264 -4 15 -10 42 -13 59 -8 47 41 189 92 268 54 84 69
146 63 257 -3 63 -11 99 -31 143 -15 32 -27 73 -27 90 0 58 -19 96 -80 164
-64 71 -121 120 -209 178 -29 20 -70 51 -90 69 -21 19 -62 46 -92 61 -30 15
-81 44 -114 65 -102 64 -275 88 -388 53z m78 -794 c9 -10 22 -18 28 -17 6 1
16 -9 23 -23 14 -26 9 -44 -6 -20 -7 12 -10 11 -15 -5 -17 -55 -40 -65 -99
-45 -27 9 -35 17 -39 43 -2 17 0 44 5 59 9 24 16 28 47 28 25 0 44 -7 56 -20z
m-197 -57 c-4 -24 -41 -28 -59 -7 -12 16 -12 17 2 12 9 -3 22 -2 30 3 22 14
31 11 27 -8z m-222 -207 c-4 -19 -14 -49 -23 -67 -10 -19 -19 -62 -20 -97 -1
-34 -12 -96 -22 -137 -11 -42 -18 -81 -16 -88 8 -29 14 -247 6 -247 -18 0 -25
69 -25 245 0 160 3 192 27 290 24 102 41 135 70 135 5 0 6 -15 3 -34z m114
-271 c0 -7 10 -21 22 -29 21 -15 21 -18 10 -91 -6 -41 -17 -84 -24 -95 -18
-28 -40 -34 -54 -15 -7 9 -20 15 -30 13 -13 -2 -24 8 -36 32 -30 60 -21 115
26 152 18 16 19 19 6 29 -13 9 -12 10 2 5 10 -3 19 -2 22 2 9 15 56 12 56 -3z
m447 -411 c-3 -3 -12 -4 -19 -1 -8 3 -5 6 6 6 11 1 17 -2 13 -5z m327 -294
c-10 -16 -24 -32 -31 -34 -8 -3 -1 10 14 29 34 43 40 45 17 5z m-834 -470 c-6
-12 -14 -19 -17 -17 -2 3 1 15 7 27 6 12 14 19 17 17 2 -3 -1 -15 -7 -27z m39
-24 c-9 -8 -10 -7 -5 7 3 10 7 24 7 30 1 7 3 4 6 -7 3 -10 -1 -23 -8 -30z m23
-38 c-7 -7 -12 -8 -12 -2 0 14 12 26 19 19 2 -3 -1 -11 -7 -17z m-252 -31 c0
-2 -9 -12 -20 -22 -24 -21 -27 -14 -4 9 15 15 24 20 24 13z m967 -19 c-3 -8
-6 -5 -6 6 -1 11 2 17 5 13 3 -3 4 -12 1 -19z m-527 -5 c-1 -28 -59 -195 -78
-225 -22 -36 -68 -58 -92 -43 -12 7 -60 103 -60 119 0 5 18 -8 40 -29 35 -35
45 -38 41 -13 0 4 9 13 22 19 20 11 21 11 8 -5 -8 -9 -12 -18 -9 -21 8 -8 48
7 42 17 -3 5 1 15 10 21 9 7 18 26 20 42 2 17 5 32 6 35 2 3 4 12 5 20 4 37
18 70 31 70 8 0 14 -3 14 -7z"/>
<path d="M3600 2582 c0 -4 10 -13 23 -21 22 -14 22 -14 3 8 -20 22 -26 25 -26
13z"/>
<path d="M2341 2417 c-23 -26 -43 -127 -24 -127 15 0 62 135 50 146 -2 2 -13
-7 -26 -19z"/>
<path d="M3280 2413 c1 -22 50 -84 50 -63 0 16 -36 80 -45 80 -3 0 -5 -8 -5
-17z"/>
<path d="M2240 2405 c-14 -8 -34 -15 -45 -15 -15 0 -17 -2 -6 -9 15 -10 67 4
77 21 10 16 0 17 -26 3z"/>
<path d="M3345 2401 c-3 -5 -1 -12 5 -16 5 -3 10 1 10 9 0 18 -6 21 -15 7z"/>
<path d="M3135 2333 c8 -21 23 -73 34 -115 24 -97 71 -167 111 -167 8 0 27 18
43 40 l27 40 -31 -23 -31 -23 -28 35 c-38 46 -76 125 -85 175 -10 52 -22 75
-40 75 -13 0 -13 -5 0 -37z"/>
<path d="M2048 2326 c-10 -7 -18 -18 -18 -25 0 -15 9 -14 27 4 20 20 13 37 -9
21z"/>
<path d="M3270 2290 c0 -5 5 -10 10 -10 6 0 10 5 10 10 0 6 -4 10 -10 10 -5 0
-10 -4 -10 -10z"/>
<path d="M2262 2278 c6 -18 28 -21 28 -4 0 9 -7 16 -16 16 -9 0 -14 -5 -12
-12z"/>
<path d="M2082 2240 c0 -19 2 -27 5 -17 2 9 2 25 0 35 -3 9 -5 1 -5 -18z"/>
<path d="M1756 2108 c8 -24 23 -80 34 -126 21 -95 35 -121 25 -47 -8 59 -53
202 -65 210 -5 3 -3 -13 6 -37z"/>
<path d="M3040 2050 c0 -5 7 -10 16 -10 8 0 12 5 9 10 -3 6 -10 10 -16 10 -5
0 -9 -4 -9 -10z"/>
<path d="M1400 1975 c0 -14 18 -100 40 -193 23 -92 49 -221 60 -288 11 -67 24
-132 29 -145 33 -83 -20 335 -54 431 -7 19 -23 77 -36 128 -22 89 -39 118 -39
67z"/>
<path d="M2970 1947 c0 -21 22 -37 50 -37 26 0 50 16 50 32 0 5 -15 6 -34 3
-20 -4 -36 -2 -40 4 -10 15 -26 14 -26 -2z"/>
<path d="M1745 1853 c8 -26 18 -66 22 -88 5 -29 8 -34 11 -17 5 32 -17 129
-33 142 -11 9 -11 4 0 -37z"/>
<path d="M2032 1638 c-7 -7 -12 -20 -12 -30 0 -22 -64 -121 -73 -112 -6 6 -12
-17 -42 -151 -9 -44 -24 -96 -32 -115 -9 -19 -19 -51 -24 -70 -4 -19 -15 -62
-23 -95 -8 -33 -18 -77 -21 -98 -7 -46 -25 -39 -26 11 0 20 -6 66 -14 102
l-13 65 -1 -132 c-1 -109 2 -134 14 -141 9 -4 17 -21 19 -38 6 -45 -39 -316
-59 -353 -12 -23 -14 -36 -6 -44 7 -7 13 -3 20 14 9 23 10 22 10 -10 1 -22 11
-45 31 -67 16 -19 32 -47 36 -62 18 -83 32 -96 174 -146 108 -39 227 -65 370
-82 137 -15 370 -19 370 -6 0 14 -72 34 -103 30 -16 -2 -32 -10 -36 -17 -6 -9
-11 -10 -15 -2 -4 6 -4 11 -1 11 4 0 -1 7 -9 16 -9 8 -19 27 -22 42 -4 15 -13
34 -21 43 -14 17 -35 127 -35 186 0 23 -5 33 -20 37 -14 3 -19 11 -16 24 3 11
1 27 -4 36 -7 13 -5 16 12 16 12 0 20 5 18 11 -2 6 -7 10 -11 10 -4 -1 -13 -1
-21 -1 -8 0 -17 -11 -20 -25 -6 -24 -8 -25 -29 -10 -12 8 -29 15 -39 15 -18 0
-44 37 -34 47 3 4 2 11 -4 17 -5 8 -5 27 2 53 7 31 16 43 34 47 29 8 32 26 4
26 -11 0 -29 9 -40 20 -11 11 -31 20 -45 20 -14 0 -25 5 -25 10 0 17 29 23 46
10 21 -18 37 0 28 34 -6 24 -10 26 -39 20 -19 -3 -35 -1 -39 5 -4 6 -2 11 3
11 6 0 11 5 11 11 0 5 -4 8 -9 5 -12 -8 -61 17 -61 32 0 18 -10 15 -31 -9 -15
-18 -26 -20 -57 -16 -22 4 -47 1 -62 -6 -38 -20 -74 -7 -78 27 -3 21 1 29 18
33 l21 5 -21 36 c-16 26 -20 50 -19 96 1 33 6 66 10 72 5 6 13 64 18 130 5 65
14 139 19 164 7 32 7 47 -1 52 -8 5 -8 10 0 20 9 11 63 159 63 173 0 10 -26 5
-38 -7z m-82 -759 c0 -4 -9 -13 -19 -18 -15 -9 -20 -7 -24 9 -3 10 -3 21 0 23
7 7 43 -4 43 -14z m41 -72 c-1 -12 -15 -9 -19 4 -3 6 1 10 8 8 6 -3 11 -8 11
-12z m109 3 c0 -5 -4 -10 -9 -10 -6 0 -13 5 -16 10 -3 6 1 10 9 10 9 0 16 -4
16 -10z m329 -440 c-2 -48 -9 -71 -19 -65 -5 3 -7 21 -5 40 3 20 0 35 -5 35
-14 0 -13 23 2 38 17 17 28 -4 27 -48z"/>
<path d="M1730 1551 c0 -38 20 -92 31 -85 14 9 10 84 -5 100 -21 20 -26 18
-26 -15z"/>
<path d="M4216 1564 c-3 -9 -3 -20 0 -25 7 -11 16 -90 15 -134 0 -28 1 -29 14
-11 10 13 11 23 5 31 -6 7 -6 24 -1 43 6 19 6 34 0 37 -5 4 -9 19 -9 35 0 33
-15 48 -24 24z"/>
<path d="M1811 1466 c-1 -57 2 -77 10 -69 7 7 8 32 1 79 l-9 69 -2 -79z"/>
<path d="M4156 1403 c-6 -14 -5 -15 5 -6 7 7 10 15 7 18 -3 3 -9 -2 -12 -12z"/>
<path d="M4354 1349 c5 -28 4 -30 -17 -23 l-22 6 21 -23 c39 -44 40 -52 5 -44
-20 4 -31 3 -31 -4 0 -6 7 -11 15 -11 9 0 20 -11 25 -24 5 -13 17 -29 27 -35
17 -10 17 -10 1 -11 -10 0 -18 -6 -18 -13 0 -7 -13 -29 -30 -48 -28 -35 -31
-60 -3 -38 10 9 13 7 13 -10 0 -25 -21 -51 -41 -51 -7 0 -20 -6 -28 -13 -9 -8
-43 -22 -76 -32 -73 -21 -80 -27 -64 -52 7 -11 9 -28 6 -38 -7 -16 -10 -15
-43 4 -20 12 -39 20 -41 17 -3 -2 9 -11 25 -20 16 -8 32 -23 36 -32 5 -13 9
-14 21 -4 8 7 22 9 31 6 15 -6 14 -9 -6 -31 -13 -14 -29 -25 -36 -25 -15 0
-80 36 -106 58 -31 26 -19 5 17 -31 19 -19 35 -44 35 -56 l0 -21 -39 21 c-21
11 -47 29 -56 39 -10 11 -23 20 -29 20 -15 -1 76 -82 130 -116 47 -30 58 -49
22 -39 -34 10 -108 45 -151 73 -22 13 -40 22 -42 20 -2 -2 25 -28 60 -58 50
-42 62 -57 53 -67 -9 -11 -14 -11 -29 3 -11 10 -21 15 -22 13 -2 -2 -20 -29
-40 -60 -20 -31 -62 -76 -92 -100 -30 -24 -55 -47 -55 -51 0 -5 -7 -8 -15 -8
-25 0 -17 18 22 52 70 61 153 149 153 162 0 8 -12 22 -27 31 -26 18 -27 17
-51 -11 -13 -16 -37 -45 -53 -64 -16 -19 -29 -38 -29 -42 0 -5 -7 -8 -15 -8
-8 0 -15 -7 -15 -15 0 -22 18 -18 31 8 7 12 27 38 45 57 18 19 40 44 48 55 12
16 17 17 27 8 20 -19 -5 -56 -88 -130 -63 -57 -73 -70 -73 -99 0 -36 10 -42
32 -21 7 7 41 34 75 61 35 27 74 64 88 82 28 36 48 45 38 17 -10 -29 -112
-152 -136 -164 -12 -6 -31 -20 -42 -30 -11 -10 -30 -27 -42 -39 -26 -23 -30
-57 -9 -85 13 -18 15 -18 50 13 20 18 41 32 46 32 21 0 9 -30 -20 -52 -32 -23
-40 -48 -16 -48 23 0 46 11 46 22 0 12 171 217 222 267 35 34 97 63 160 75 19
3 50 17 68 31 41 30 54 31 91 4 l29 -20 0 20 c0 12 4 21 8 21 23 0 45 -45 57
-117 8 -43 18 -91 24 -106 13 -32 40 -35 66 -7 10 11 13 20 8 20 -7 0 -9 56
-6 169 3 107 0 171 -6 175 -6 4 -13 -17 -17 -53 -4 -40 -13 -66 -25 -77 -18
-16 -20 -16 -34 2 -8 10 -15 26 -16 34 -1 8 -3 26 -5 40 -2 14 -4 62 -5 108
-1 68 -4 82 -16 78 -41 -16 -51 52 -35 237 5 49 4 81 -3 88 -7 7 -5 14 6 22
15 12 15 14 -2 36 -25 30 -24 41 3 41 18 0 16 5 -18 30 -50 37 -58 37 -50 -1z
m-34 -380 c0 -9 -63 -59 -73 -59 -4 0 -7 6 -7 14 0 8 -7 16 -16 18 -11 2 -3
13 27 35 40 29 45 30 57 15 6 -8 12 -19 12 -23z m-10 -58 c0 -13 -40 -61 -51
-61 -18 0 -9 39 13 54 25 18 38 20 38 7z m-10 -84 c0 -14 -20 -37 -32 -37 -13
0 -9 38 5 43 21 9 27 7 27 -6z m-118 -41 c-2 -9 1 -16 6 -16 5 0 12 -9 15 -20
8 -29 -35 -57 -58 -38 -59 48 -74 75 -34 63 15 -5 25 -1 36 15 17 24 40 22 35
-4z m108 -30 c0 -16 -18 -31 -27 -22 -8 8 5 36 17 36 5 0 10 -6 10 -14z m-83
-78 c-3 -8 -6 -5 -6 6 -1 11 2 17 5 13 3 -3 4 -12 1 -19z m-277 -234 c0 -8
-38 -50 -79 -88 -19 -17 -50 -47 -68 -66 l-33 -35 0 37 c0 30 7 42 38 68 20
17 56 40 80 51 23 12 42 25 42 30 0 5 5 9 10 9 6 0 10 -3 10 -6z"/>
<path d="M4230 1321 c0 -47 19 -67 22 -22 0 17 1 36 2 43 1 6 -5 13 -11 16 -9
2 -13 -9 -13 -37z"/>
<path d="M4168 1312 c-40 -24 -38 -28 19 -42 3 -1 12 12 19 29 15 36 5 40 -38
13z"/>
<path d="M4154 1232 c-16 -10 -27 -69 -15 -76 13 -9 22 8 26 49 2 19 2 35 2
35 -1 0 -7 -4 -13 -8z"/>
<path d="M4312 1170 c-6 -11 -12 -30 -12 -42 0 -19 3 -18 25 12 14 19 25 38
25 42 0 16 -25 8 -38 -12z"/>
<path d="M2954 1129 c-3 -6 0 -16 7 -21 11 -7 11 -11 2 -15 -20 -7 -15 -23 6
-23 23 0 39 49 19 61 -18 12 -26 11 -34 -2z"/>
<path d="M4110 1120 c0 -8 5 -22 10 -30 9 -13 10 -13 10 0 0 8 -5 22 -10 30
-9 13 -10 13 -10 0z"/>
<path d="M3021 1094 c0 -11 3 -14 6 -6 3 7 2 16 -1 19 -3 4 -6 -2 -5 -13z"/>
<path d="M4215 1100 c-3 -5 -1 -10 4 -10 6 0 11 5 11 10 0 6 -2 10 -4 10 -3 0
-8 -4 -11 -10z"/>
<path d="M2900 1040 c0 -44 37 -60 85 -37 23 11 35 24 35 37 0 23 -1 24 -34 9
-20 -10 -30 -9 -50 5 -34 22 -36 21 -36 -14z"/>
<path d="M4140 1020 c0 -6 11 -8 28 -4 39 10 40 14 4 14 -18 0 -32 -5 -32 -10z"/>
<path d="M4090 1006 c0 -2 7 -9 15 -16 13 -11 14 -10 9 4 -5 14 -24 23 -24 12z"/>
<path d="M2301 974 c0 -11 3 -14 6 -6 3 7 2 16 -1 19 -3 4 -6 -2 -5 -13z"/>
<path d="M2096 931 c-18 -7 -18 -8 5 -14 42 -12 53 -9 39 8 -14 17 -16 17 -44
6z"/>
<path d="M3590 859 c0 -5 5 -7 10 -4 6 3 10 8 10 11 0 2 -4 4 -10 4 -5 0 -10
-5 -10 -11z"/>
<path d="M1746 851 c-4 -7 -5 -15 -2 -18 9 -9 19 4 14 18 -4 11 -6 11 -12 0z"/>
<path d="M2286 853 c-11 -11 -6 -23 9 -23 8 0 15 4 15 9 0 13 -16 22 -24 14z"/>
<path d="M3750 830 c0 -5 5 -10 11 -10 5 0 7 5 4 10 -3 6 -8 10 -11 10 -2 0
-4 -4 -4 -10z"/>
<path d="M3551 816 c-16 -19 -11 -29 8 -17 7 5 12 14 9 21 -3 9 -8 7 -17 -4z"/>
<path d="M3840 826 c0 -2 8 -10 18 -17 15 -13 16 -12 3 4 -13 16 -21 21 -21
13z"/>
<path d="M2420 761 c0 -17 5 -33 10 -36 6 -4 10 8 10 29 0 20 -4 36 -10 36 -5
0 -10 -13 -10 -29z"/>
<path d="M3760 775 c-7 -9 -11 -18 -8 -20 3 -3 11 1 18 10 7 9 11 18 8 20 -3
3 -11 -1 -18 -10z"/>
<path d="M3495 759 c-11 -17 1 -21 15 -4 8 9 8 15 2 15 -6 0 -14 -5 -17 -11z"/>
<path d="M3795 760 c-3 -5 1 -10 9 -10 9 0 16 5 16 10 0 6 -4 10 -9 10 -6 0
-13 -4 -16 -10z"/>
<path d="M3831 732 c-1 -13 -11 -27 -69 -102 -13 -17 -22 -34 -20 -39 6 -17
100 119 95 137 -3 9 -5 11 -6 4z"/>
<path d="M3439 710 c-13 -10 -19 -19 -13 -20 6 0 19 9 29 20 23 26 14 26 -16
0z"/>
<path d="M3550 709 c0 -5 5 -7 10 -4 6 3 10 8 10 11 0 2 -4 4 -10 4 -5 0 -10
-5 -10 -11z"/>
<path d="M3750 700 c0 -5 5 -10 10 -10 6 0 10 5 10 10 0 6 -4 10 -10 10 -5 0
-10 -4 -10 -10z"/>
<path d="M2460 670 c0 -5 -9 -10 -21 -10 -12 0 -23 -8 -26 -20 -3 -11 -10 -20
-16 -20 -12 0 23 -29 36 -30 5 0 6 8 2 19 -4 13 0 20 12 23 16 4 31 48 17 48
-2 0 -4 -4 -4 -10z"/>
<path d="M3466 645 c-11 -8 -18 -17 -15 -19 2 -3 15 4 29 14 14 11 21 20 15
19 -5 0 -19 -6 -29 -14z"/>
<path d="M1305 613 c47 -48 228 -204 231 -200 9 9 -55 92 -111 145 -40 38 -67
55 -93 59 -25 4 -34 2 -27 -4z"/>
<path d="M3243 613 c-13 -2 -23 -8 -23 -13 0 -5 14 -4 30 1 27 10 42 21 23 18
-5 -1 -18 -4 -30 -6z"/>
<path d="M3390 600 c-20 -16 -21 -19 -5 -13 32 10 62 33 45 33 -8 0 -26 -9
-40 -20z"/>
<path d="M2460 600 c0 -5 5 -10 10 -10 6 0 10 5 10 10 0 6 -4 10 -10 10 -5 0
-10 -4 -10 -10z"/>
<path d="M2425 567 c-4 -10 -5 -21 -1 -24 10 -10 18 4 13 24 -4 17 -4 17 -12
0z"/>
<path d="M3265 550 c-16 -7 -17 -9 -3 -9 9 -1 20 4 23 9 7 11 7 11 -20 0z"/>
<path d="M4411 553 c0 -7 -8 -13 -17 -13 -23 0 -84 -64 -84 -88 0 -32 -11 -52
-27 -52 -13 0 -13 -3 -3 -15 17 -20 30 -19 30 4 0 10 17 30 40 45 44 29 73 76
67 109 -2 12 -5 16 -6 10z"/>
<path d="M2770 305 c-7 -16 -12 -52 -11 -79 2 -37 0 -47 -10 -44 -8 3 -15 14
-17 26 -4 26 -32 30 -32 5 0 -9 10 -27 22 -40 l21 -23 -26 0 c-27 0 -40 -28
-14 -31 6 -1 19 -3 27 -4 8 -1 20 -3 27 -4 6 0 15 -10 18 -21 3 -11 15 -20 26
-20 22 0 22 1 10 33 -8 21 -6 26 15 36 13 6 24 17 24 26 0 11 6 10 25 -7 30
-26 32 -44 5 -58 -35 -19 -11 -31 56 -29 50 2 64 5 60 15 -4 8 -9 21 -12 29
-4 11 0 15 15 15 12 0 21 5 21 10 0 6 10 10 21 10 20 0 21 4 14 48 -7 51 -20
72 -42 72 -7 0 -17 8 -20 18 -15 39 -40 41 -55 5 -9 -22 -12 -24 -15 -10 -5
21 -22 22 -30 1 -3 -8 -11 -13 -18 -10 -7 2 -23 -3 -35 -11 -21 -15 -23 -14
-34 3 -6 10 -14 30 -17 44 l-6 25 -13 -30z"/>
<path d="M2821 284 c0 -11 3 -14 6 -6 3 7 2 16 -1 19 -3 4 -6 -2 -5 -13z"/>
<path d="M2710 259 c0 -5 5 -7 10 -4 6 3 10 8 10 11 0 2 -4 4 -10 4 -5 0 -10
-5 -10 -11z"/>
<path d="M4095 250 c-3 -5 -1 -10 4 -10 6 0 11 5 11 10 0 6 -2 10 -4 10 -3 0
-8 -4 -11 -10z"/>
<path d="M3105 204 c-17 -13 -18 -16 -5 -24 28 -18 60 -6 60 21 0 23 -27 25
-55 3z"/>
<path d="M3079 130 c-4 -38 -2 -54 9 -58 7 -2 12 5 12 17 0 11 5 23 10 26 6 4
8 11 5 16 -8 12 -35 12 -36 -1z"/>
<path d="M3567 133 c-13 -13 -7 -21 13 -16 11 3 20 9 20 14 0 10 -24 12 -33 2z"/>
<path d="M3493 110 c-23 -9 -29 -21 -17 -33 9 -8 64 21 64 33 0 12 -17 12 -47
0z"/>
<path d="M3421 86 c-7 -8 -8 -16 -4 -18 13 -7 33 -4 33 5 0 4 0 12 0 17 0 14
-16 12 -29 -4z"/>
</g>
</svg>
